<mxfile host="drawio-plugin" modified="2021-10-20T13:50:32.152Z" agent="5.0 (X11; Linux x86_64) AppleWebKit/537.36 (KHTML, like Gecko) Chrome/87.0.4280.141 Safari/537.36" etag="REHq_V-R0BtW6tneQ18K" version="14.7.4" type="embed"><diagram id="2kH1UsU6TexDezQx_7MA" name="test"><mxGraphModel dx="1424" dy="747" grid="1" gridSize="10" guides="1" tooltips="1" connect="1" arrows="1" fold="1" page="1" pageScale="1" pageWidth="850" pageHeight="1100" math="0" shadow="0"><root><mxCell id="LPkPpCV0EkhbvFAbJh_--0"/><mxCell id="LPkPpCV0EkhbvFAbJh_--1" parent="LPkPpCV0EkhbvFAbJh_--0"/><mxCell id="oHbvVybQEzz0VKQcz7GT-0" style="edgeStyle=orthogonalEdgeStyle;rounded=0;orthogonalLoop=1;jettySize=auto;html=1;entryX=0;entryY=0.5;entryDx=0;entryDy=0;" parent="LPkPpCV0EkhbvFAbJh_--1" source="4BKHRYfmitr028DzB-_r-0" target="4BKHRYfmitr028DzB-_r-2" edge="1"><mxGeometry relative="1" as="geometry"/></mxCell><mxCell id="4BKHRYfmitr028DzB-_r-0" value="request json" style="rounded=0;whiteSpace=wrap;html=1;" parent="LPkPpCV0EkhbvFAbJh_--1" vertex="1"><mxGeometry x="40" y="40" width="120" height="40" as="geometry"/></mxCell><mxCell id="4BKHRYfmitr028DzB-_r-1" value="controller" style="rounded=0;whiteSpace=wrap;html=1;fillColor=#d5e8d4;strokeColor=#82b366;" parent="LPkPpCV0EkhbvFAbJh_--1" vertex="1"><mxGeometry x="240" y="80" width="120" height="40" as="geometry"/></mxCell><mxCell id="4BKHRYfmitr028DzB-_r-2" value="view" style="rounded=0;whiteSpace=wrap;html=1;fillColor=#e1d5e7;strokeColor=#9673a6;" parent="LPkPpCV0EkhbvFAbJh_--1" vertex="1"><mxGeometry x="240" y="40" width="120" height="40" as="geometry"/></mxCell><mxCell id="4BKHRYfmitr028DzB-_r-3" value="service" style="rounded=0;whiteSpace=wrap;html=1;fillColor=#d5e8d4;strokeColor=#82b366;" parent="LPkPpCV0EkhbvFAbJh_--1" vertex="1"><mxGeometry x="240" y="120" width="120" height="40" as="geometry"/></mxCell><mxCell id="4BKHRYfmitr028DzB-_r-4" value="dto" style="rounded=0;whiteSpace=wrap;html=1;fillColor=#fff2cc;strokeColor=#d6b656;" parent="LPkPpCV0EkhbvFAbJh_--1" vertex="1"><mxGeometry x="360" y="120" width="80" height="40" as="geometry"/></mxCell><mxCell id="4BKHRYfmitr028DzB-_r-5" value="entity" style="rounded=0;whiteSpace=wrap;html=1;fillColor=#fff2cc;strokeColor=#d6b656;" parent="LPkPpCV0EkhbvFAbJh_--1" vertex="1"><mxGeometry x="360" y="160" width="80" height="40" as="geometry"/></mxCell><mxCell id="oHbvVybQEzz0VKQcz7GT-1" style="edgeStyle=orthogonalEdgeStyle;rounded=0;orthogonalLoop=1;jettySize=auto;html=1;entryX=1;entryY=0.5;entryDx=0;entryDy=0;" parent="LPkPpCV0EkhbvFAbJh_--1" source="4BKHRYfmitr028DzB-_r-6" target="4BKHRYfmitr028DzB-_r-9" edge="1"><mxGeometry relative="1" as="geometry"/></mxCell><mxCell id="4BKHRYfmitr028DzB-_r-6" value="repository" style="rounded=0;whiteSpace=wrap;html=1;fillColor=#d5e8d4;strokeColor=#82b366;" parent="LPkPpCV0EkhbvFAbJh_--1" vertex="1"><mxGeometry x="240" y="160" width="120" height="40" as="geometry"/></mxCell><mxCell id="4BKHRYfmitr028DzB-_r-7" value="dto" style="rounded=0;whiteSpace=wrap;html=1;fillColor=#fff2cc;strokeColor=#d6b656;" parent="LPkPpCV0EkhbvFAbJh_--1" vertex="1"><mxGeometry x="360" y="80" width="80" height="40" as="geometry"/></mxCell><mxCell id="4BKHRYfmitr028DzB-_r-8" value="model" style="rounded=0;whiteSpace=wrap;html=1;fillColor=#d5e8d4;strokeColor=#82b366;" parent="LPkPpCV0EkhbvFAbJh_--1" vertex="1"><mxGeometry x="240" y="200" width="120" height="40" as="geometry"/></mxCell><mxCell id="4BKHRYfmitr028DzB-_r-9" value="database" style="rounded=0;whiteSpace=wrap;html=1;fillColor=#f5f5f5;strokeColor=#666666;fontColor=#333333;" parent="LPkPpCV0EkhbvFAbJh_--1" vertex="1"><mxGeometry x="40" y="160" width="120" height="40" as="geometry"/></mxCell></root></mxGraphModel></diagram></mxfile>